<?xml version="1.0" encoding="iso-8859-1"?>
<!-- Generator: Adobe Illustrator 19.0.0, SVG Export Plug-In . SVG Version: 6.00 Build 0)  -->
<svg version="1.1" id="Capa_1" xmlns="http://www.w3.org/2000/svg" xmlns:xlink="http://www.w3.org/1999/xlink" x="0px" y="0px"
	 viewBox="0 0 512.001 512.001" style="enable-background:new 0 0 512.001 512.001;" xml:space="preserve">
<path style="fill:#E1E8EF;" d="M399.613,504.396H112.388c-13.49,0-24.427-10.937-24.427-24.427V32.031
	c0-13.49,10.937-24.427,24.427-24.427h287.224c13.49,0,24.427,10.937,24.427,24.427v447.938
	C424.04,493.46,413.103,504.396,399.613,504.396z"/>
<rect x="155.233" y="49.642" style="fill:#1F3B63;" width="201.535" height="304.909"/>
<polyline style="fill:#25C2CE;" points="276.154,354.554 316.462,354.554 316.462,314.246 276.154,314.246 276.154,273.938 
	235.847,273.938 235.847,314.246 195.539,314.246 195.539,354.554 235.847,354.554 "/>
<polygon style="fill:#ED3B72;" points="195.539,153.015 155.231,153.015 155.231,193.322 155.231,233.63 155.231,273.938 
	195.539,273.938 195.539,233.63 195.539,193.322 235.847,193.322 235.847,153.015 "/>
<polygon style="fill:#F4E662;" points="316.462,314.246 316.462,354.554 356.77,354.554 356.77,314.246 356.77,273.938 
	316.462,273.938 316.462,233.63 276.154,233.63 276.154,273.938 276.154,314.246 "/>
<g>
	<circle style="fill:#1F3B63;" cx="181.482" cy="432.098" r="31.174"/>
	<circle style="fill:#1F3B63;" cx="313.791" cy="415.369" r="15.967"/>
	<circle style="fill:#1F3B63;" cx="358.654" cy="450.763" r="15.967"/>
</g>
<path d="M399.613,0H112.388c-17.69,0-32.031,14.341-32.031,32.031v358.577c0,4.199,3.405,7.604,7.604,7.604l0,0
	c4.199,0,7.604-3.405,7.604-7.604V32.031c0-9.291,7.532-16.823,16.823-16.823h287.224c9.291,0,16.823,7.532,16.823,16.823v105.114
	c0,4.199,3.405,7.604,7.604,7.604l0,0c4.199,0,7.604-3.405,7.604-7.604V32.031C431.644,14.341,417.303,0,399.613,0z"/>
<path d="M416.436,479.969c0,9.291-7.532,16.823-16.823,16.823H112.388c-9.291,0-16.823-7.532-16.823-16.823v-53.874
	c0-4.199-3.405-7.604-7.604-7.604l0,0c-4.199,0-7.604,3.405-7.604,7.604v53.875c0,17.69,14.341,32.031,32.031,32.031h287.225
	c17.69,0,32.031-14.341,32.031-32.031V172.631c0-4.199-3.405-7.604-7.604-7.604l0,0c-4.199,0-7.604,3.405-7.604,7.604
	L416.436,479.969L416.436,479.969z"/>
<path d="M356.77,42.038H155.231c-4.199,0-7.604,3.405-7.604,7.604v103.372v201.539c0,4.199,3.405,7.604,7.604,7.604H356.77
	c4.199,0,7.604-3.405,7.604-7.604V49.642C364.374,45.442,360.97,42.038,356.77,42.038z M162.835,160.618h65.408v25.1h-32.704
	c-4.199,0-7.604,3.405-7.604,7.604v73.012h-25.1V160.618z M308.858,346.95h-32.704h-40.307h-32.704v-25.1h32.704
	c4.199,0,7.604-3.405,7.604-7.604v-32.704h25.099v32.704c0,4.199,3.405,7.604,7.604,7.604h32.704V346.95z M349.166,346.95h-25.1
	v-32.704c0-4.199-3.405-7.604-7.604-7.604h-32.704v-32.704v-32.704h25.1v32.704c0,4.199,3.405,7.604,7.604,7.604h32.704V346.95z
	 M349.166,266.334h-25.1V233.63c0-4.199-3.405-7.604-7.604-7.604h-40.308c-4.199,0-7.604,3.405-7.604,7.604v32.704h-32.703
	c-4.199,0-7.604,3.405-7.604,7.604v32.704h-32.704c-4.199,0-7.604,3.405-7.604,7.604v32.704h-25.1v-65.408h32.704
	c4.199,0,7.604-3.405,7.604-7.604v-73.012h32.704c4.199,0,7.604-3.405,7.604-7.604v-40.308c0-4.199-3.405-7.604-7.604-7.604h-73.012
	V57.246h186.331L349.166,266.334L349.166,266.334z"/>
<path d="M181.486,470.88c21.382,0,38.779-17.396,38.779-38.779c0-21.382-17.396-38.778-38.779-38.778s-38.779,17.396-38.779,38.778
	C142.707,453.484,160.102,470.88,181.486,470.88z M181.486,408.531c12.997,0,23.571,10.574,23.571,23.57
	s-10.574,23.571-23.571,23.571s-23.571-10.574-23.571-23.571C157.915,419.105,168.488,408.531,181.486,408.531z"/>
<path d="M313.788,391.803c-12.998,0-23.572,10.575-23.572,23.571c0,12.998,10.575,23.572,23.572,23.572
	c12.997,0,23.571-10.575,23.571-23.572S326.785,391.803,313.788,391.803z M313.788,423.737c-4.612,0-8.364-3.752-8.364-8.364
	c0-4.611,3.752-8.363,8.364-8.363c4.611,0,8.363,3.752,8.363,8.363C322.151,419.986,318.4,423.737,313.788,423.737z"/>
<path d="M358.649,474.338c12.998,0,23.572-10.575,23.572-23.571c0-12.998-10.575-23.572-23.572-23.572
	c-12.997,0-23.571,10.575-23.571,23.572C335.078,463.764,345.652,474.338,358.649,474.338z M358.649,442.402
	c4.612,0,8.364,3.752,8.364,8.364c0,4.611-3.752,8.363-8.364,8.363c-4.611,0-8.363-3.752-8.363-8.363
	C350.286,446.155,354.038,442.402,358.649,442.402z"/>
<g>
</g>
<g>
</g>
<g>
</g>
<g>
</g>
<g>
</g>
<g>
</g>
<g>
</g>
<g>
</g>
<g>
</g>
<g>
</g>
<g>
</g>
<g>
</g>
<g>
</g>
<g>
</g>
<g>
</g>
</svg>
